<?xml version="1.0" encoding="UTF-8" standalone="no"?>
<!-- Created with Inkscape (http://www.inkscape.org/) -->

<svg
   width="1920"
   height="1080"
   viewBox="0 0 1920 1080"
   version="1.1"
   id="svg5"
   inkscape:version="1.1.2 (0a00cf5339, 2022-02-04)"
   sodipodi:docname="colloid-wallpaper.svg"
   xmlns:inkscape="http://www.inkscape.org/namespaces/inkscape"
   xmlns:sodipodi="http://sodipodi.sourceforge.net/DTD/sodipodi-0.dtd"
   xmlns="http://www.w3.org/2000/svg"
   xmlns:svg="http://www.w3.org/2000/svg">
  <sodipodi:namedview
     id="namedview7"
     pagecolor="#ffffff"
     bordercolor="#666666"
     borderopacity="1.0"
     inkscape:pageshadow="2"
     inkscape:pageopacity="0.0"
     inkscape:pagecheckerboard="0"
     inkscape:document-units="px"
     showgrid="false"
     units="px"
     inkscape:zoom="0.12293771"
     inkscape:cx="4725.9705"
     inkscape:cy="642.60184"
     inkscape:window-width="1440"
     inkscape:window-height="748"
     inkscape:window-x="0"
     inkscape:window-y="28"
     inkscape:window-maximized="1"
     inkscape:current-layer="layer1" />
  <defs
     id="defs2" />
  <g
     inkscape:label="图层 1"
     inkscape:groupmode="layer"
     id="layer1">
    <g
       id="g1597">
      <rect
         style="opacity:1;fill:#ebebeb;fill-opacity:1;stroke:none;stroke-width:2;stroke-linecap:round;stroke-linejoin:round"
         id="rect4222"
         width="1920"
         height="1080"
         x="0"
         y="0"
         rx="0"
         ry="0" />
      <path
         id="path869"
         style="opacity:1;fill:#fdc119;fill-opacity:1;stroke:none;stroke-width:1px;stroke-linecap:butt;stroke-linejoin:miter;stroke-opacity:1"
         d="M 6.6484375 0 C 29.003515 20.447852 79.996288 61.958836 156.53125 93.783203 C 277.8615 144.23412 368.47569 152.64089 420.51562 186.90625 C 544.14624 268.31006 557.43274 365.05384 662.35742 429.13086 C 779.50683 500.67345 889.59944 484.27219 988.33984 544.32422 C 1070.3474 594.19961 1187.7225 717.25653 1339.6191 712.44531 C 1542.8709 706.00745 1626.7195 597.1335 1724.0508 569.59961 C 1818.9506 542.75354 1885.0804 544.04385 1920 535.25781 L 1920 0 L 6.6484375 0 z " />
      <path
         id="path2110"
         style="fill:#fe464b;stroke:none;stroke-width:1px;stroke-linecap:butt;stroke-linejoin:miter;stroke-opacity:1;fill-opacity:1;opacity:1"
         d="M 517.83008 0 C 523.50679 45.021248 536.17032 97.008565 562.25977 149.56836 C 634.11432 294.32652 676.89965 298.13078 713.16797 410.37305 C 765.5824 572.58391 732.85827 639.33513 776.41602 688.3457 C 822.41076 740.09833 898.82041 782.88786 945.41016 840.59375 C 995.79954 903.00586 1084.4006 1000.1128 1188.1152 1023.3008 C 1323.1339 1053.4876 1442.4763 985.86377 1636.5156 978.05078 C 1763.2023 972.94974 1858.5968 990.16356 1920 1006.7344 L 1920 0 L 517.83008 0 z " />
      <path
         id="path61152"
         style="opacity:1;fill:#fc6c01;fill-opacity:1;stroke:none;stroke-width:1px;stroke-linecap:butt;stroke-linejoin:miter;stroke-opacity:1"
         d="M 517.83008 0 C 523.50679 45.021248 536.17032 97.008564 562.25977 149.56836 C 634.11432 294.32652 676.89965 298.13078 713.16797 410.37305 C 719.04189 428.55151 723.71513 445.36186 727.67773 461.25195 C 820.51549 497.20179 908.17023 495.56658 988.33984 544.32422 C 1070.3474 594.19961 1187.7225 717.25653 1339.6191 712.44531 C 1542.8709 706.00745 1626.7195 597.1335 1724.0508 569.59961 C 1818.9506 542.75354 1885.0804 544.04385 1920 535.25781 L 1920 0 L 517.83008 0 z " />
      <path
         id="path3441"
         style="opacity:1;fill:#ed3b01;fill-opacity:1;stroke:none;stroke-width:1px;stroke-linecap:butt;stroke-linejoin:miter;stroke-opacity:1"
         d="M 1176.4961 0 C 1187.1614 25.074886 1198.5628 50.677202 1210.0195 74.302734 C 1238.7243 133.49614 1284.4648 257.12419 1371.0195 281.38867 C 1467.4323 308.41674 1592.7437 309.73457 1681.541 282.19922 C 1772.9381 253.85771 1813.3059 184.58757 1862.4238 161.68164 C 1881.2362 152.90859 1901.765 149.62364 1920 148.85547 L 1920 0 L 1176.4961 0 z " />
      <path
         id="path4365"
         style="opacity:1;fill:#fe4746;fill-opacity:1;stroke:none;stroke-width:1px;stroke-linecap:butt;stroke-linejoin:miter;stroke-opacity:1"
         d="M 0 191.94336 L 0 1080 L 108.83789 1080 C 152.51142 1042.1859 198.94601 985.18019 204.11914 910.54102 C 212.84971 784.57418 208.4461 769.27067 276.99805 677.86523 C 345.55 586.4598 278.40671 428.04912 246.76172 377.33789 C 180.39334 270.98228 66.657667 216.26627 0 191.94336 z " />
      <path
         id="path4880"
         style="opacity:1;fill:#efc902;fill-opacity:1;stroke:none;stroke-width:1px;stroke-linecap:butt;stroke-linejoin:miter;stroke-opacity:1"
         d="M 284.94531 665.79492 C 282.50466 669.91763 279.91778 673.97213 276.99805 677.86523 C 210.72409 766.23325 212.55955 784.39565 204.87109 899.26562 C 247.5554 853.56896 276.35637 792.26261 284.94531 665.79492 z " />
      <path
         id="path5444"
         style="fill:#d469db;stroke:none;stroke-width:1px;stroke-linecap:butt;stroke-linejoin:miter;stroke-opacity:1;fill-opacity:1;opacity:1"
         d="M 999.25977 906.4082 C 916.5212 907.83241 840.11833 949.19933 806.05859 971.32617 C 769.53668 995.05256 700.65948 1051.6783 666.72852 1080 L 1288.3008 1080 C 1276.7625 1067.1036 1260.2363 1049.6661 1239.6172 1030.3809 C 1222.5807 1029.3987 1205.4781 1027.1827 1188.1152 1023.3008 C 1117.0451 1007.4113 1053.4346 956.81942 1003.9902 906.45898 C 1002.4152 906.45683 1000.8305 906.38117 999.25977 906.4082 z " />
      <path
         id="path6102"
         style="opacity:1;fill:#f8536e;fill-opacity:1;stroke:none;stroke-width:1px;stroke-linecap:butt;stroke-linejoin:miter;stroke-opacity:1"
         d="M 827.45312 950.40234 C 711.46838 950.3294 610.88228 1013.2447 546.29688 1080 L 1129.9121 1080 C 1068.7765 1035.7448 957.92245 964.16406 866.60547 952.83594 C 853.384 951.19578 840.32378 950.41044 827.45312 950.40234 z " />
      <path
         id="path72237"
         style="opacity:1;fill:#fd6301;fill-opacity:1;stroke:none;stroke-width:1px;stroke-linecap:butt;stroke-linejoin:miter;stroke-opacity:1"
         d="M 0 294.29492 L 0 1080 L 0.16796875 1080 C 18.702146 1060.92 40.233038 1039.7602 66.84375 1015.5801 C 120.48093 966.84194 167.87593 938.87165 204.87109 899.26562 C 212.55955 784.39565 210.72409 766.23325 276.99805 677.86523 C 279.91778 673.97213 282.50466 669.91763 284.94531 665.79492 C 285.90277 651.69691 286.64639 636.90651 287.0918 621.11719 C 292.58434 426.41024 98.368926 330.37826 0 294.29492 z " />
      <path
         id="path83437"
         style="fill:#c01065;stroke:none;stroke-width:1px;stroke-linecap:butt;stroke-linejoin:miter;stroke-opacity:1;fill-opacity:1;opacity:1"
         d="M 841.3457 950.83398 C 827.09062 958.27837 815.06162 965.47738 806.05859 971.32617 C 769.53668 995.05256 700.65948 1051.6783 666.72852 1080 L 1129.9121 1080 C 1068.7765 1035.7448 957.92245 964.16406 866.60547 952.83594 C 858.10699 951.78168 849.70342 951.20248 841.3457 950.83398 z " />
      <path
         id="path89801"
         style="fill:#de0147;stroke:none;stroke-width:1px;stroke-linecap:butt;stroke-linejoin:miter;stroke-opacity:1;fill-opacity:1;opacity:1"
         d="M 1003.9902 906.45898 C 1053.4346 956.81942 1117.0451 1007.4113 1188.1152 1023.3008 C 1205.4781 1027.1827 1222.5807 1029.3987 1239.6172 1030.3809 C 1206.92 999.79885 1163.7649 964.5021 1112.6309 934.78125 C 1077.3247 914.26012 1040.1271 906.50846 1003.9902 906.45898 z " />
    </g>
    <g
       id="g119312">
      <rect
         style="fill:#1f1f1f;fill-opacity:1;stroke:none;stroke-width:2;stroke-linecap:round;stroke-linejoin:round"
         id="rect1599"
         width="1920"
         height="1080"
         x="0"
         y="1558.7463"
         rx="0"
         ry="0" />
      <g
         id="g1912"
         style="opacity:1">
        <path
           id="path1601"
           style="fill:#fdc119;fill-opacity:1;stroke:none;stroke-width:1px;stroke-linecap:butt;stroke-linejoin:miter;stroke-opacity:1"
           d="m 6.6484375,1558.7463 c 22.3550775,20.4479 73.3478505,61.9588 149.8828125,93.7832 121.33025,50.4509 211.94444,58.8577 263.98437,93.1231 123.63062,81.4038 136.91712,178.1475 241.8418,242.2246 117.14941,71.5426 227.24202,55.1413 325.98242,115.1933 82.00756,49.8754 199.38266,172.9323 351.27926,168.1211 203.2518,-6.4379 287.1004,-115.3118 384.4317,-142.8457 94.8998,-26.8461 161.0296,-25.5558 195.9492,-34.3418 v -535.2578 z" />
        <path
           id="path1603"
           style="fill:#fe464b;fill-opacity:1;stroke:none;stroke-width:1px;stroke-linecap:butt;stroke-linejoin:miter;stroke-opacity:1"
           d="m 517.83008,1558.7463 c 5.67671,45.0212 18.34024,97.0086 44.42969,149.5684 71.85455,144.7581 114.63988,148.5624 150.9082,260.8047 52.41443,162.2108 19.6903,228.962 63.24805,277.9726 45.99474,51.7526 122.40439,94.5422 168.99414,152.2481 50.38938,62.4121 138.99044,159.519 242.70504,182.707 135.0187,30.1868 254.3611,-37.437 448.4004,-45.25 126.6867,-5.1011 222.0812,12.1128 283.4844,28.6836 V 1558.7463 Z" />
        <path
           id="path1605"
           style="fill:#fc6c01;fill-opacity:1;stroke:none;stroke-width:1px;stroke-linecap:butt;stroke-linejoin:miter;stroke-opacity:1"
           d="m 517.83008,1558.7463 c 5.67671,45.0212 18.34024,97.0086 44.42969,149.5684 71.85455,144.7581 114.63988,148.5624 150.9082,260.8047 5.87392,18.1784 10.54716,34.9888 14.50976,50.8789 92.83776,35.9498 180.4925,34.3146 260.66211,83.0722 82.00756,49.8754 199.38266,172.9323 351.27926,168.1211 203.2518,-6.4379 287.1004,-115.3118 384.4317,-142.8457 94.8998,-26.8461 161.0296,-25.5558 195.9492,-34.3418 v -535.2578 z" />
        <path
           id="path1607"
           style="fill:#ed3b01;fill-opacity:1;stroke:none;stroke-width:1px;stroke-linecap:butt;stroke-linejoin:miter;stroke-opacity:1"
           d="m 1176.4961,1558.7463 c 10.6653,25.0749 22.0667,50.6772 33.5234,74.3027 28.7048,59.1934 74.4453,182.8215 161,207.086 96.4128,27.028 221.7242,28.3459 310.5215,0.8105 91.3971,-28.3415 131.7649,-97.6116 180.8828,-120.5176 18.8124,-8.773 39.3412,-12.058 57.5762,-12.8261 v -148.8555 z" />
        <path
           id="path1609"
           style="fill:#fe4746;fill-opacity:1;stroke:none;stroke-width:1px;stroke-linecap:butt;stroke-linejoin:miter;stroke-opacity:1"
           d="m 0,1750.6897 v 888.0566 h 108.83789 c 43.67353,-37.8141 90.10812,-94.8198 95.28125,-169.459 8.73057,-125.9668 4.32696,-141.2703 72.87891,-232.6758 68.55195,-91.4054 1.40866,-249.8161 -30.23633,-300.5273 C 180.39334,1829.7286 66.657667,1775.0126 0,1750.6897 Z" />
        <path
           id="path1611"
           style="fill:#efc902;fill-opacity:1;stroke:none;stroke-width:1px;stroke-linecap:butt;stroke-linejoin:miter;stroke-opacity:1"
           d="m 284.94531,2224.5412 c -2.44065,4.1227 -5.02753,8.1772 -7.94726,12.0703 -66.27396,88.3681 -64.4385,106.5305 -72.12696,221.4004 42.68431,-45.6966 71.48528,-107.003 80.07422,-233.4707 z" />
        <path
           id="path1613"
           style="fill:#d469db;fill-opacity:1;stroke:none;stroke-width:1px;stroke-linecap:butt;stroke-linejoin:miter;stroke-opacity:1"
           d="M 999.25977 2465.1543 C 916.5212 2466.5785 840.11833 2507.9454 806.05859 2530.0723 C 769.53668 2553.7987 700.65948 2610.4244 666.72852 2638.7461 L 1288.3008 2638.7461 C 1276.7625 2625.8497 1260.2363 2608.4122 1239.6172 2589.127 C 1222.5807 2588.1448 1205.4781 2585.9288 1188.1152 2582.0469 C 1117.0451 2566.1574 1053.4346 2515.5655 1003.9902 2465.2051 C 1002.4152 2465.2029 1000.8305 2465.1273 999.25977 2465.1543 z " />
        <path
           id="path1615"
           style="fill:#f8536e;fill-opacity:1;stroke:none;stroke-width:1px;stroke-linecap:butt;stroke-linejoin:miter;stroke-opacity:1"
           d="m 827.45312,2509.1486 c -115.98474,-0.073 -216.57084,62.8424 -281.15624,129.5977 h 583.61522 c -61.1356,-44.2552 -171.98965,-115.8359 -263.30663,-127.1641 -13.22147,-1.6401 -26.28169,-2.4255 -39.15235,-2.4336 z" />
        <path
           id="path1617"
           style="fill:#fd6301;fill-opacity:1;stroke:none;stroke-width:1px;stroke-linecap:butt;stroke-linejoin:miter;stroke-opacity:1"
           d="m 0,1853.0412 v 785.7051 h 0.16796875 c 18.53417725,-19.08 40.06506925,-40.2398 66.67578125,-64.4199 53.63718,-48.7382 101.03218,-76.7085 138.02734,-116.3145 7.68846,-114.8699 5.853,-133.0323 72.12696,-221.4004 2.91973,-3.8931 5.50661,-7.9476 7.94726,-12.0703 0.95746,-14.098 1.70108,-28.8884 2.14649,-44.6777 C 292.58434,1985.1565 98.368926,1889.1246 0,1853.0412 Z" />
        <path
           id="path1619"
           style="fill:#c01065;fill-opacity:1;stroke:none;stroke-width:1px;stroke-linecap:butt;stroke-linejoin:miter;stroke-opacity:1"
           d="m 841.3457,2509.5803 c -14.25508,7.4444 -26.28408,14.6434 -35.28711,20.4922 -36.52191,23.7264 -105.39911,80.3521 -139.33007,108.6738 h 463.18358 c -61.1356,-44.2552 -171.98965,-115.8359 -263.30663,-127.1641 -8.49848,-1.0542 -16.90205,-1.6334 -25.25977,-2.0019 z" />
        <path
           id="path1621"
           style="fill:#de0147;fill-opacity:1;stroke:none;stroke-width:1px;stroke-linecap:butt;stroke-linejoin:miter;stroke-opacity:1"
           d="m 1003.9902,2465.2053 c 49.4444,50.3604 113.0549,100.9523 184.125,116.8418 17.3629,3.8819 34.4655,6.0979 51.502,7.0801 -32.6972,-30.582 -75.8523,-65.8788 -126.9863,-95.5997 -35.3062,-20.5211 -72.5038,-28.2727 -108.6407,-28.3222 z" />
      </g>
    </g>
    <g
       id="g261890"
       transform="translate(2293.033)">
      <rect
         style="opacity:1;fill:#ebebeb;fill-opacity:1;stroke:none;stroke-width:2;stroke-linecap:round;stroke-linejoin:round"
         id="rect261866"
         width="1920"
         height="1080"
         x="0"
         y="0"
         rx="0"
         ry="0" />
      <path
         id="path261868"
         style="opacity:1;fill:#2bbdd4;fill-opacity:1;stroke:none;stroke-width:1px;stroke-linecap:butt;stroke-linejoin:miter;stroke-opacity:1"
         d="M 6.6484375,0 C 29.003515,20.447852 79.996288,61.958836 156.53125,93.783203 277.8615,144.23412 368.47569,152.64089 420.51562,186.90625 c 123.63062,81.40381 136.91712,178.14759 241.8418,242.22461 117.14941,71.54259 227.24202,55.14133 325.98242,115.19336 82.00756,49.87539 199.38266,172.93231 351.27926,168.12109 203.2518,-6.43786 287.1004,-115.31181 384.4317,-142.8457 94.8998,-26.84607 161.0296,-25.55576 195.9492,-34.3418 V 0 Z" />
      <path
         id="path261870"
         style="opacity:1;fill:#10baa1;fill-opacity:1;stroke:none;stroke-width:1px;stroke-linecap:butt;stroke-linejoin:miter;stroke-opacity:1"
         d="m 517.83008,0 c 5.67671,45.021248 18.34024,97.008565 44.42969,149.56836 71.85455,144.75816 114.63988,148.56242 150.9082,260.80469 52.41443,162.21086 19.6903,228.96208 63.24805,277.97265 45.99474,51.75263 122.40439,94.54216 168.99414,152.24805 50.38938,62.41211 138.99044,159.51905 242.70504,182.70705 135.0187,30.1868 254.3611,-37.43703 448.4004,-45.25002 126.6867,-5.10104 222.0812,12.11278 283.4844,28.68362 V 0 Z" />
      <path
         id="path261872"
         style="opacity:1;fill:#1edf89;fill-opacity:1;stroke:none;stroke-width:1px;stroke-linecap:butt;stroke-linejoin:miter;stroke-opacity:1"
         d="m 517.83008,0 c 5.67671,45.021248 18.34024,97.008564 44.42969,149.56836 71.85455,144.75816 114.63988,148.56242 150.9082,260.80469 5.87392,18.17846 10.54716,34.98881 14.50976,50.8789 92.83776,35.94984 180.4925,34.31463 260.66211,83.07227 82.00756,49.87539 199.38266,172.93231 351.27926,168.12109 203.2518,-6.43786 287.1004,-115.31181 384.4317,-142.8457 94.8998,-26.84607 161.0296,-25.55576 195.9492,-34.3418 V 0 Z" />
      <path
         id="path261874"
         style="opacity:1;fill:#ebf976;fill-opacity:1;stroke:none;stroke-width:1px;stroke-linecap:butt;stroke-linejoin:miter;stroke-opacity:1"
         d="m 1176.4961,0 c 10.6653,25.074886 22.0667,50.677202 33.5234,74.302734 28.7048,59.193406 74.4453,182.821456 161,207.085936 96.4128,27.02807 221.7242,28.3459 310.5215,0.81055 91.3971,-28.34151 131.7649,-97.61165 180.8828,-120.51758 18.8124,-8.77305 39.3412,-12.058 57.5762,-12.82617 V 0 Z" />
      <path
         id="path261876"
         style="opacity:1;fill:#ebf976;fill-opacity:1;stroke:none;stroke-width:1px;stroke-linecap:butt;stroke-linejoin:miter;stroke-opacity:1"
         d="M 0,191.94336 V 1080 h 108.83789 c 43.67353,-37.8141 90.10812,-94.81981 95.28125,-169.45898 8.73057,-125.96684 4.32696,-141.27035 72.87891,-232.67579 C 345.55,586.4598 278.40671,428.04912 246.76172,377.33789 180.39334,270.98228 66.657667,216.26627 0,191.94336 Z" />
      <path
         id="path261878"
         style="opacity:1;fill:#10baa1;fill-opacity:1;stroke:none;stroke-width:1px;stroke-linecap:butt;stroke-linejoin:miter;stroke-opacity:1"
         d="m 284.94531,665.79492 c -2.44065,4.12271 -5.02753,8.17721 -7.94726,12.07031 -66.27396,88.36802 -64.4385,106.53042 -72.12696,221.40039 42.68431,-45.69666 71.48528,-107.00301 80.07422,-233.4707 z" />
      <path
         id="path261880"
         style="opacity:1;fill:#71ecb5;fill-opacity:1;stroke:none;stroke-width:1px;stroke-linecap:butt;stroke-linejoin:miter;stroke-opacity:1"
         d="M 3292.293 906.4082 C 3209.5544 907.83241 3133.1515 949.19933 3099.0918 971.32617 C 3062.5699 995.05256 2993.6927 1051.6783 2959.7617 1080 L 3581.334 1080 C 3569.7957 1067.1036 3553.2695 1049.6661 3532.6504 1030.3809 C 3515.6139 1029.3987 3498.5113 1027.1827 3481.1484 1023.3008 C 3410.0783 1007.4113 3346.4678 956.81942 3297.0234 906.45898 C 3295.4484 906.45683 3293.8637 906.38117 3292.293 906.4082 z "
         transform="translate(-2293.033)" />
      <path
         id="path261882"
         style="opacity:1;fill:#10baa1;fill-opacity:1;stroke:none;stroke-width:1px;stroke-linecap:butt;stroke-linejoin:miter;stroke-opacity:1"
         d="M 827.45312,950.40234 C 711.46838,950.3294 610.88228,1013.2447 546.29688,1080 h 583.61522 c -61.1356,-44.2552 -171.98965,-115.83594 -263.30663,-127.16406 -13.22147,-1.64016 -26.28169,-2.4255 -39.15235,-2.4336 z" />
      <path
         id="path261884"
         style="opacity:1;fill:#1edf89;fill-opacity:1;stroke:none;stroke-width:1px;stroke-linecap:butt;stroke-linejoin:miter;stroke-opacity:1"
         d="M 0,294.29492 V 1080 H 0.16796875 C 18.702146,1060.92 40.233038,1039.7602 66.84375,1015.5801 c 53.63718,-48.73816 101.03218,-76.70845 138.02734,-116.31448 7.68846,-114.86997 5.853,-133.03237 72.12696,-221.40039 2.91973,-3.8931 5.50661,-7.9476 7.94726,-12.07031 0.95746,-14.09801 1.70108,-28.88841 2.14649,-44.67773 C 292.58434,426.41024 98.368926,330.37826 0,294.29492 Z" />
      <path
         id="path261886"
         style="opacity:1;fill:#ebf976;fill-opacity:1;stroke:none;stroke-width:1px;stroke-linecap:butt;stroke-linejoin:miter;stroke-opacity:1"
         d="m 841.3457,950.83398 c -14.25508,7.44439 -26.28408,14.6434 -35.28711,20.49219 C 769.53668,995.05256 700.65948,1051.6783 666.72852,1080 h 463.18358 c -61.1356,-44.2552 -171.98965,-115.83594 -263.30663,-127.16406 -8.49848,-1.05426 -16.90205,-1.63346 -25.25977,-2.00196 z" />
      <path
         id="path261888"
         style="opacity:1;fill:#2bbdd4;fill-opacity:1;stroke:none;stroke-width:1px;stroke-linecap:butt;stroke-linejoin:miter;stroke-opacity:1"
         d="m 1003.9902,906.45898 c 49.4444,50.36044 113.0549,100.95232 184.125,116.84182 17.3629,3.8819 34.4655,6.0979 51.502,7.0801 -32.6972,-30.58205 -75.8523,-65.8788 -126.9863,-95.59965 -35.3062,-20.52113 -72.5038,-28.27279 -108.6407,-28.32227 z" />
    </g>
    <g
       id="g276863"
       transform="translate(4585.6781)">
      <rect
         style="opacity:1;fill:#ebebeb;fill-opacity:1;stroke:none;stroke-width:2;stroke-linecap:round;stroke-linejoin:round"
         id="rect276839"
         width="1920"
         height="1080"
         x="0"
         y="0"
         rx="0"
         ry="0" />
      <path
         id="path276841"
         style="opacity:1;fill:#a938f0;fill-opacity:1;stroke:none;stroke-width:1px;stroke-linecap:butt;stroke-linejoin:miter;stroke-opacity:1"
         d="M 6.6484375,0 C 29.003515,20.447852 79.996288,61.958836 156.53125,93.783203 277.8615,144.23412 368.47569,152.64089 420.51562,186.90625 c 123.63062,81.40381 136.91712,178.14759 241.8418,242.22461 117.14941,71.54259 227.24202,55.14133 325.98242,115.19336 82.00756,49.87539 199.38266,172.93231 351.27926,168.12109 203.2518,-6.43786 287.1004,-115.31181 384.4317,-142.8457 94.8998,-26.84607 161.0296,-25.55576 195.9492,-34.3418 V 0 Z" />
      <path
         id="path276843"
         style="opacity:1;fill:#be53ff;fill-opacity:1;stroke:none;stroke-width:1px;stroke-linecap:butt;stroke-linejoin:miter;stroke-opacity:1"
         d="m 517.83008,0 c 5.67671,45.021248 18.34024,97.008565 44.42969,149.56836 71.85455,144.75816 114.63988,148.56242 150.9082,260.80469 52.41443,162.21086 19.6903,228.96208 63.24805,277.97265 45.99474,51.75263 122.40439,94.54216 168.99414,152.24805 50.38938,62.41211 138.99044,159.51905 242.70504,182.70705 135.0187,30.1868 254.3611,-37.43703 448.4004,-45.25002 126.6867,-5.10104 222.0812,12.11278 283.4844,28.68362 V 0 Z" />
      <path
         id="path276845"
         style="opacity:1;fill:#ff6fea;fill-opacity:1;stroke:none;stroke-width:1px;stroke-linecap:butt;stroke-linejoin:miter;stroke-opacity:1"
         d="m 517.83008,0 c 5.67671,45.021248 18.34024,97.008564 44.42969,149.56836 71.85455,144.75816 114.63988,148.56242 150.9082,260.80469 5.87392,18.17846 10.54716,34.98881 14.50976,50.8789 92.83776,35.94984 180.4925,34.31463 260.66211,83.07227 82.00756,49.87539 199.38266,172.93231 351.27926,168.12109 203.2518,-6.43786 287.1004,-115.31181 384.4317,-142.8457 94.8998,-26.84607 161.0296,-25.55576 195.9492,-34.3418 V 0 Z" />
      <path
         id="path276847"
         style="opacity:1;fill:#ff5ba2;fill-opacity:1;stroke:none;stroke-width:1px;stroke-linecap:butt;stroke-linejoin:miter;stroke-opacity:1"
         d="m 1176.4961,0 c 10.6653,25.074886 22.0667,50.677202 33.5234,74.302734 28.7048,59.193406 74.4453,182.821456 161,207.085936 96.4128,27.02807 221.7242,28.3459 310.5215,0.81055 91.3971,-28.34151 131.7649,-97.61165 180.8828,-120.51758 18.8124,-8.77305 39.3412,-12.058 57.5762,-12.82617 V 0 Z" />
      <path
         id="path276849"
         style="opacity:1;fill:#ffb3ce;fill-opacity:1;stroke:none;stroke-width:1px;stroke-linecap:butt;stroke-linejoin:miter;stroke-opacity:1"
         d="M 0,191.94336 V 1080 h 108.83789 c 43.67353,-37.8141 90.10812,-94.81981 95.28125,-169.45898 8.73057,-125.96684 4.32696,-141.27035 72.87891,-232.67579 C 345.55,586.4598 278.40671,428.04912 246.76172,377.33789 180.39334,270.98228 66.657667,216.26627 0,191.94336 Z" />
      <path
         id="path276851"
         style="opacity:1;fill:#b86be7;fill-opacity:1;stroke:none;stroke-width:1px;stroke-linecap:butt;stroke-linejoin:miter;stroke-opacity:1"
         d="m 284.94531,665.79492 c -2.44065,4.12271 -5.02753,8.17721 -7.94726,12.07031 -66.27396,88.36802 -64.4385,106.53042 -72.12696,221.40039 42.68431,-45.69666 71.48528,-107.00301 80.07422,-233.4707 z" />
      <path
         id="path276853"
         style="opacity:1;fill:#fea5c2;fill-opacity:1;stroke:none;stroke-width:1px;stroke-linecap:butt;stroke-linejoin:miter;stroke-opacity:1"
         d="M 5584.9375 906.4082 C 5502.1989 907.83241 5425.7961 949.19933 5391.7363 971.32617 C 5355.2144 995.05256 5286.3372 1051.6783 5252.4062 1080 L 5873.9785 1080 C 5862.4403 1067.1036 5845.914 1049.6661 5825.2949 1030.3809 C 5808.2584 1029.3987 5791.1558 1027.1827 5773.793 1023.3008 C 5702.7226 1007.4112 5639.1124 956.81959 5589.668 906.45898 C 5588.093 906.45683 5586.5082 906.38117 5584.9375 906.4082 z "
         transform="translate(-4585.6781)" />
      <path
         id="path276855"
         style="opacity:1;fill:#b86be7;fill-opacity:1;stroke:none;stroke-width:1px;stroke-linecap:butt;stroke-linejoin:miter;stroke-opacity:1"
         d="M 827.45312,950.40234 C 711.46838,950.3294 610.88228,1013.2447 546.29688,1080 h 583.61522 c -61.1356,-44.2552 -171.98965,-115.83594 -263.30663,-127.16406 -13.22147,-1.64016 -26.28169,-2.4255 -39.15235,-2.4336 z" />
      <path
         id="path276857"
         style="opacity:1;fill:#ff6fea;fill-opacity:1;stroke:none;stroke-width:1px;stroke-linecap:butt;stroke-linejoin:miter;stroke-opacity:1"
         d="M 0,294.29492 V 1080 H 0.16796875 C 18.702146,1060.92 40.233038,1039.7602 66.84375,1015.5801 c 53.63718,-48.73816 101.03218,-76.70845 138.02734,-116.31448 7.68846,-114.86997 5.853,-133.03237 72.12696,-221.40039 2.91973,-3.8931 5.50661,-7.9476 7.94726,-12.07031 0.95746,-14.09801 1.70108,-28.88841 2.14649,-44.67773 C 292.58434,426.41024 98.368926,330.37826 0,294.29492 Z" />
      <path
         id="path276859"
         style="opacity:1;fill:#993ab5;fill-opacity:1;stroke:none;stroke-width:1px;stroke-linecap:butt;stroke-linejoin:miter;stroke-opacity:1"
         d="m 841.3457,950.83398 c -14.25508,7.44439 -26.28408,14.6434 -35.28711,20.49219 C 769.53668,995.05256 700.65948,1051.6783 666.72852,1080 h 463.18358 c -61.1356,-44.2552 -171.98965,-115.83594 -263.30663,-127.16406 -8.49848,-1.05426 -16.90205,-1.63346 -25.25977,-2.00196 z" />
      <path
         id="path276861"
         style="opacity:1;fill:#a938f0;fill-opacity:1;stroke:none;stroke-width:1px;stroke-linecap:butt;stroke-linejoin:miter;stroke-opacity:1"
         d="m 1003.9902,906.45898 c 49.4444,50.36044 113.0549,100.95232 184.125,116.84182 17.3629,3.8819 34.4655,6.0979 51.502,7.0801 -32.6972,-30.58205 -75.8523,-65.8788 -126.9863,-95.59965 -35.3062,-20.52113 -72.5038,-28.27279 -108.6407,-28.32227 z" />
    </g>
    <g
       id="g492922"
       transform="translate(2293.033,1569.6311)">
      <rect
         style="opacity:1;fill:#1f1f1f;fill-opacity:1;stroke:none;stroke-width:2;stroke-linecap:round;stroke-linejoin:round"
         id="rect492898"
         width="1920"
         height="1080"
         x="0"
         y="0"
         rx="0"
         ry="0" />
      <path
         id="path492900"
         style="opacity:1;fill:#229baa;fill-opacity:1;stroke:none;stroke-width:1px;stroke-linecap:butt;stroke-linejoin:miter;stroke-opacity:1"
         d="M 6.6484375,0 C 29.003515,20.447854 79.996288,61.958842 156.53125,93.783212 277.8615,144.23414 368.47569,152.6409 420.51562,186.90627 c 123.63062,81.40381 136.91712,178.1476 241.8418,242.22463 117.14941,71.5426 227.24202,55.14134 325.98242,115.19337 82.00756,49.8754 199.38266,172.93233 351.27926,168.12111 203.2518,-6.43787 287.1004,-115.31183 384.4317,-142.84572 94.8998,-26.84607 161.0296,-25.55576 195.9492,-34.3418 V 0 Z" />
      <path
         id="path492902"
         style="opacity:1;fill:#10baa1;fill-opacity:1;stroke:none;stroke-width:1px;stroke-linecap:butt;stroke-linejoin:miter;stroke-opacity:1"
         d="m 517.83008,0 c 5.67671,45.021248 18.34024,97.008565 44.42969,149.56836 71.85455,144.75816 114.63988,148.56242 150.9082,260.80469 52.41443,162.21086 19.6903,228.96208 63.24805,277.97265 45.99474,51.75263 122.40439,94.54216 168.99414,152.24805 50.38938,62.41211 138.99044,159.51905 242.70504,182.70705 135.0187,30.1868 254.3611,-37.43703 448.4004,-45.25002 126.6867,-5.10104 222.0812,12.11278 283.4844,28.68362 V 0 Z" />
      <path
         id="path492904"
         style="opacity:1;fill:#1edf89;fill-opacity:1;stroke:none;stroke-width:1px;stroke-linecap:butt;stroke-linejoin:miter;stroke-opacity:1"
         d="m 517.83008,0 c 5.67671,45.021248 18.34024,97.008564 44.42969,149.56836 71.85455,144.75816 114.63988,148.56242 150.9082,260.80469 5.87392,18.17846 10.54716,34.98881 14.50976,50.8789 92.83776,35.94984 180.4925,34.31463 260.66211,83.07227 82.00756,49.87539 199.38266,172.93231 351.27926,168.12109 203.2518,-6.43786 287.1004,-115.31181 384.4317,-142.8457 94.8998,-26.84607 161.0296,-25.55576 195.9492,-34.3418 V 0 Z" />
      <path
         id="path492906"
         style="opacity:1;fill:#ebf976;fill-opacity:1;stroke:none;stroke-width:1px;stroke-linecap:butt;stroke-linejoin:miter;stroke-opacity:1"
         d="m 1176.4961,0 c 10.6653,25.074886 22.0667,50.677202 33.5234,74.302734 28.7048,59.193406 74.4453,182.821456 161,207.085936 96.4128,27.02807 221.7242,28.3459 310.5215,0.81055 91.3971,-28.34151 131.7649,-97.61165 180.8828,-120.51758 18.8124,-8.77305 39.3412,-12.058 57.5762,-12.82617 V 0 Z" />
      <path
         id="path492908"
         style="opacity:1;fill:#ebf976;fill-opacity:1;stroke:none;stroke-width:1px;stroke-linecap:butt;stroke-linejoin:miter;stroke-opacity:1"
         d="M 0,191.94336 V 1080 h 108.83789 c 43.67353,-37.8141 90.10812,-94.81981 95.28125,-169.45898 8.73057,-125.96684 4.32696,-141.27035 72.87891,-232.67579 C 345.55,586.4598 278.40671,428.04912 246.76172,377.33789 180.39334,270.98228 66.657667,216.26627 0,191.94336 Z" />
      <path
         id="path492910"
         style="opacity:1;fill:#10baa1;fill-opacity:1;stroke:none;stroke-width:1px;stroke-linecap:butt;stroke-linejoin:miter;stroke-opacity:1"
         d="m 284.94531,665.79492 c -2.44065,4.12271 -5.02753,8.17721 -7.94726,12.07031 -66.27396,88.36802 -64.4385,106.53042 -72.12696,221.40039 42.68431,-45.69666 71.48528,-107.00301 80.07422,-233.4707 z" />
      <path
         id="path492912"
         style="opacity:1;fill:#1edf89;fill-opacity:1;stroke:none;stroke-width:1px;stroke-linecap:butt;stroke-linejoin:miter;stroke-opacity:1"
         d="M 3292.293 2476.0391 C 3209.5544 2477.4633 3133.1515 2518.8302 3099.0918 2540.957 C 3062.5699 2564.6834 2993.6927 2621.3092 2959.7617 2649.6309 L 3581.334 2649.6309 C 3569.7957 2636.7344 3553.2695 2619.297 3532.6504 2600.0117 C 3515.6139 2599.0296 3498.5113 2596.8135 3481.1484 2592.9316 C 3410.0783 2577.0421 3346.4678 2526.4503 3297.0234 2476.0898 C 3295.4484 2476.0877 3293.8637 2476.012 3292.293 2476.0391 z "
         transform="translate(-2293.033,-1569.6311)" />
      <path
         id="path492914"
         style="opacity:1;fill:#10baa1;fill-opacity:1;stroke:none;stroke-width:1px;stroke-linecap:butt;stroke-linejoin:miter;stroke-opacity:1"
         d="M 827.45312,950.40234 C 711.46838,950.3294 610.88228,1013.2447 546.29688,1080 h 583.61522 c -61.1356,-44.2552 -171.98965,-115.83594 -263.30663,-127.16406 -13.22147,-1.64016 -26.28169,-2.4255 -39.15235,-2.4336 z" />
      <path
         id="path492916"
         style="opacity:1;fill:#1edf89;fill-opacity:1;stroke:none;stroke-width:1px;stroke-linecap:butt;stroke-linejoin:miter;stroke-opacity:1"
         d="M 0,294.29492 V 1080 H 0.16796875 C 18.702146,1060.92 40.233038,1039.7602 66.84375,1015.5801 c 53.63718,-48.73816 101.03218,-76.70845 138.02734,-116.31448 7.68846,-114.86997 5.853,-133.03237 72.12696,-221.40039 2.91973,-3.8931 5.50661,-7.9476 7.94726,-12.07031 0.95746,-14.09801 1.70108,-28.88841 2.14649,-44.67773 C 292.58434,426.41024 98.368926,330.37826 0,294.29492 Z" />
      <path
         id="path492918"
         style="opacity:1;fill:#ebf976;fill-opacity:1;stroke:none;stroke-width:1px;stroke-linecap:butt;stroke-linejoin:miter;stroke-opacity:1"
         d="m 841.3457,950.83398 c -14.25508,7.44439 -26.28408,14.6434 -35.28711,20.49219 C 769.53668,995.05256 700.65948,1051.6783 666.72852,1080 h 463.18358 c -61.1356,-44.2552 -171.98965,-115.83594 -263.30663,-127.16406 -8.49848,-1.05426 -16.90205,-1.63346 -25.25977,-2.00196 z" />
      <path
         id="path492920"
         style="opacity:1;fill:#229baa;fill-opacity:1;stroke:none;stroke-width:1px;stroke-linecap:butt;stroke-linejoin:miter;stroke-opacity:1"
         d="m 1003.9902,906.45907 c 49.4444,50.36045 113.0549,100.95233 184.125,116.84183 17.3629,3.8819 34.4655,6.0979 51.502,7.0801 -32.6972,-30.58205 -75.8523,-65.8788 -126.9863,-95.59965 -35.3062,-20.52114 -72.5038,-28.2728 -108.6407,-28.32228 z" />
    </g>
    <g
       id="g492948"
       transform="translate(4585.6781,1569.6311)">
      <rect
         style="opacity:1;fill:#1f1f1f;fill-opacity:1;stroke:none;stroke-width:2;stroke-linecap:round;stroke-linejoin:round"
         id="rect492924"
         width="1920"
         height="1080"
         x="0"
         y="0"
         rx="0"
         ry="0" />
      <path
         id="path492926"
         style="opacity:1;fill:#9600f5;fill-opacity:1;stroke:none;stroke-width:1px;stroke-linecap:butt;stroke-linejoin:miter;stroke-opacity:1"
         d="M 6.6484375,0 C 29.003515,20.447852 79.996288,61.958836 156.53125,93.783203 277.8615,144.23412 368.47569,152.64089 420.51562,186.90625 c 123.63062,81.40381 136.91712,178.14759 241.8418,242.22461 117.14941,71.54259 227.24202,55.14133 325.98242,115.19336 82.00756,49.87539 199.38266,172.93231 351.27926,168.12109 203.2518,-6.43786 287.1004,-115.31181 384.4317,-142.8457 94.8998,-26.84607 161.0296,-25.55576 195.9492,-34.3418 V 0 Z" />
      <path
         id="path492928"
         style="opacity:1;fill:#b53dff;fill-opacity:1;stroke:none;stroke-width:1px;stroke-linecap:butt;stroke-linejoin:miter;stroke-opacity:1"
         d="m 517.83008,0 c 5.67671,45.021248 18.34024,97.008565 44.42969,149.56836 71.85455,144.75816 114.63988,148.56242 150.9082,260.80469 52.41443,162.21086 19.6903,228.96208 63.24805,277.97265 45.99474,51.75263 122.40439,94.54216 168.99414,152.24805 50.38938,62.41211 138.99044,159.51905 242.70504,182.70705 135.0187,30.1868 254.3611,-37.43703 448.4004,-45.25002 126.6867,-5.10104 222.0812,12.11278 283.4844,28.68362 V 0 Z" />
      <path
         id="path492930"
         style="opacity:1;fill:#ff3de0;fill-opacity:1;stroke:none;stroke-width:1px;stroke-linecap:butt;stroke-linejoin:miter;stroke-opacity:1"
         d="m 517.83008,0 c 5.67671,45.021248 18.34024,97.008564 44.42969,149.56836 71.85455,144.75816 114.63988,148.56242 150.9082,260.80469 5.87392,18.17846 10.54716,34.98881 14.50976,50.8789 92.83776,35.94984 180.4925,34.31463 260.66211,83.07227 82.00756,49.87539 199.38266,172.93231 351.27926,168.12109 203.2518,-6.43786 287.1004,-115.31181 384.4317,-142.8457 94.8998,-26.84607 161.0296,-25.55576 195.9492,-34.3418 V 0 Z" />
      <path
         id="path492932"
         style="opacity:1;fill:#ff3d91;fill-opacity:1;stroke:none;stroke-width:1px;stroke-linecap:butt;stroke-linejoin:miter;stroke-opacity:1"
         d="m 1176.4961,0 c 10.6653,25.074886 22.0667,50.677202 33.5234,74.302734 28.7048,59.193406 74.4453,182.821456 161,207.085936 96.4128,27.02807 221.7242,28.3459 310.5215,0.81055 91.3971,-28.34151 131.7649,-97.61165 180.8828,-120.51758 18.8124,-8.77305 39.3412,-12.058 57.5762,-12.82617 V 0 Z" />
      <path
         id="path492934"
         style="opacity:1;fill:#ff3d91;fill-opacity:1;stroke:none;stroke-width:1px;stroke-linecap:butt;stroke-linejoin:miter;stroke-opacity:1"
         d="M 0,191.94336 V 1080 h 108.83789 c 43.67353,-37.8141 90.10812,-94.81981 95.28125,-169.45898 8.73057,-125.96684 4.32696,-141.27035 72.87891,-232.67579 C 345.55,586.4598 278.40671,428.04912 246.76172,377.33789 180.39334,270.98228 66.657667,216.26627 0,191.94336 Z" />
      <path
         id="path492936"
         style="opacity:1;fill:#b53dff;fill-opacity:1;stroke:none;stroke-width:1px;stroke-linecap:butt;stroke-linejoin:miter;stroke-opacity:1"
         d="m 284.94531,665.79492 c -2.44065,4.12271 -5.02753,8.17721 -7.94726,12.07031 -66.27396,88.36802 -64.4385,106.53042 -72.12696,221.40039 42.68431,-45.69666 71.48528,-107.00301 80.07422,-233.4707 z" />
      <path
         id="path492938"
         style="opacity:1;fill:#ff3d91;fill-opacity:1;stroke:none;stroke-width:1px;stroke-linecap:butt;stroke-linejoin:miter;stroke-opacity:1"
         d="M 5584.9375 2476.0391 C 5502.1989 2477.4633 5425.7961 2518.8302 5391.7363 2540.957 C 5355.2144 2564.6834 5286.3372 2621.3092 5252.4062 2649.6309 L 5873.9785 2649.6309 C 5862.4403 2636.7344 5845.914 2619.297 5825.2949 2600.0117 C 5808.2584 2599.0296 5791.1558 2596.8135 5773.793 2592.9316 C 5702.7226 2577.0421 5639.1124 2526.4504 5589.668 2476.0898 C 5588.093 2476.0877 5586.5082 2476.012 5584.9375 2476.0391 z "
         transform="translate(-4585.6781,-1569.6311)" />
      <path
         id="path492940"
         style="opacity:1;fill:#b63dff;fill-opacity:1;stroke:none;stroke-width:1px;stroke-linecap:butt;stroke-linejoin:miter;stroke-opacity:1"
         d="M 827.45312,950.40234 C 711.46838,950.3294 610.88228,1013.2447 546.29688,1080 h 583.61522 c -61.1356,-44.2552 -171.98965,-115.83594 -263.30663,-127.16406 -13.22147,-1.64016 -26.28169,-2.4255 -39.15235,-2.4336 z" />
      <path
         id="path492942"
         style="opacity:1;fill:#ff5ce6;fill-opacity:1;stroke:none;stroke-width:1px;stroke-linecap:butt;stroke-linejoin:miter;stroke-opacity:1"
         d="M 0,294.29492 V 1080 H 0.16796875 C 18.702146,1060.92 40.233038,1039.7602 66.84375,1015.5801 c 53.63718,-48.73816 101.03218,-76.70845 138.02734,-116.31448 7.68846,-114.86997 5.853,-133.03237 72.12696,-221.40039 2.91973,-3.8931 5.50661,-7.9476 7.94726,-12.07031 0.95746,-14.09801 1.70108,-28.88841 2.14649,-44.67773 C 292.58434,426.41024 98.368926,330.37826 0,294.29492 Z" />
      <path
         id="path492944"
         style="opacity:1;fill:#9600c2;fill-opacity:1;stroke:none;stroke-width:1px;stroke-linecap:butt;stroke-linejoin:miter;stroke-opacity:1"
         d="m 841.3457,950.83398 c -14.25508,7.44439 -26.28408,14.6434 -35.28711,20.49219 C 769.53668,995.05256 700.65948,1051.6783 666.72852,1080 h 463.18358 c -61.1356,-44.2552 -171.98965,-115.83594 -263.30663,-127.16406 -8.49848,-1.05426 -16.90205,-1.63346 -25.25977,-2.00196 z" />
      <path
         id="path492946"
         style="opacity:1;fill:#9600f5;fill-opacity:1;stroke:none;stroke-width:1px;stroke-linecap:butt;stroke-linejoin:miter;stroke-opacity:1"
         d="m 1003.9902,906.45898 c 49.4444,50.36044 113.0549,100.95232 184.125,116.84182 17.3629,3.8819 34.4655,6.0979 51.502,7.0801 -32.6972,-30.58205 -75.8523,-65.8788 -126.9863,-95.59965 -35.3062,-20.52113 -72.5038,-28.27279 -108.6407,-28.32227 z" />
    </g>
  </g>
</svg>
